HIERARCHY
ROOT Hips
{
	OFFSET 0.000000 0.000000 0.000000
	CHANNELS 6 Xposition Yposition Zposition Zrotation Yrotation Xrotation 
	JOINT LeftUpLeg_virtual
	{
		OFFSET 0.000000 0.000000 0.000000
		CHANNELS 3 Zrotation Yrotation Xrotation
		JOINT LeftUpLeg
		{
			OFFSET 10.205400 -3.823500 0.155100
			CHANNELS 3 Zrotation Yrotation Xrotation
			JOINT LeftLeg
			{
				OFFSET 0.708757 -12.982077 0.567790
				CHANNELS 3 Zrotation Yrotation Xrotation
				JOINT LeftFoot
				{
					OFFSET -0.708756 -10.717838 -2.184338
					CHANNELS 3 Zrotation Yrotation Xrotation
					JOINT LeftToeBase
					{
						OFFSET 0.108149 -7.191104 7.560241
						CHANNELS 3 Zrotation Yrotation Xrotation
						End Site
						{
							OFFSET 0.000000 0.000000 0.000000
						}
					}
				}
			}
		}
	}
	JOINT RightUpLeg_virtual
	{
		OFFSET 0.000000 0.000000 0.000000
		CHANNELS 3 Zrotation Yrotation Xrotation
		JOINT RightUpLeg
		{
			OFFSET -10.205400 -3.823500 0.005500
			CHANNELS 3 Zrotation Yrotation Xrotation
			JOINT RightLeg
			{
				OFFSET -0.708756 -12.982134 0.610632
				CHANNELS 3 Zrotation Yrotation Xrotation
				JOINT RightFoot
				{
					OFFSET 0.708754 -10.717769 -1.945823
					CHANNELS 3 Zrotation Yrotation Xrotation
					JOINT RightToeBase
					{
						OFFSET -0.108140 -7.191069 7.372968
						CHANNELS 3 Zrotation Yrotation Xrotation
						End Site
						{
							OFFSET 0.000000 0.000000 0.000000
						}
					}
				}
			}
		}
	}
	JOINT Spine_virtual
	{
		OFFSET 0.000000 0.000000 0.000000
		CHANNELS 3 Zrotation Yrotation Xrotation
		JOINT Spine
		{
			OFFSET 0.000000 6.876099 0.125700
			CHANNELS 3 Zrotation Yrotation Xrotation
			JOINT Spine1
			{
				OFFSET 0.000000 8.022060 0.146608
				CHANNELS 3 Zrotation Yrotation Xrotation
				JOINT Spine2
				{
					OFFSET 0.000000 9.168068 0.167552
					CHANNELS 3 Zrotation Yrotation Xrotation
					JOINT Neck_virtual
					{
						OFFSET 0.000000 0.000000 0.000000
						CHANNELS 3 Zrotation Yrotation Xrotation
						JOINT Neck
						{
							OFFSET 0.000000 10.314075 0.188496
							CHANNELS 3 Zrotation Yrotation Xrotation
							JOINT Head
							{
								OFFSET 0.000000 7.643700 -2.377400
								CHANNELS 3 Zrotation Yrotation Xrotation
								End Site
								{
									OFFSET 0.000000 0.000000 0.000000
								}
							}
						}
					}
					JOINT LeftShoulder_virtual
					{
						OFFSET 0.000000 0.000000 0.000000
						CHANNELS 3 Zrotation Yrotation Xrotation
						JOINT LeftShoulder
						{
							OFFSET 4.392200 8.824978 0.174984
							CHANNELS 3 Zrotation Yrotation Xrotation
							JOINT LeftArm
							{
								OFFSET 8.771219 -2.981674 -0.026999
								CHANNELS 3 Zrotation Yrotation Xrotation
								JOINT LeftForeArm
								{
									OFFSET 8.512804 0.000000 -0.000000
									CHANNELS 3 Zrotation Yrotation Xrotation
									JOINT LeftHand
									{
										OFFSET 18.484802 0.000000 -0.000000
										CHANNELS 3 Zrotation Yrotation Xrotation
										End Site
										{
											OFFSET 0.000000 0.000000 0.000000
										}
									}
								}
							}
						}
					}
					JOINT RightShoulder_virtual
					{
						OFFSET 0.000000 0.000000 0.000000
						CHANNELS 3 Zrotation Yrotation Xrotation
						JOINT RightShoulder
						{
							OFFSET -4.392200 8.824993 0.141379
							CHANNELS 3 Zrotation Yrotation Xrotation
							JOINT RightArm
							{
								OFFSET -8.771282 -2.981682 -0.094208
								CHANNELS 3 Zrotation Yrotation Xrotation
								JOINT RightForeArm
								{
									OFFSET -8.494598 0.000000 0.000000
									CHANNELS 3 Zrotation Yrotation Xrotation
									JOINT RightHand
									{
										OFFSET -18.483803 0.000000 0.000001
										CHANNELS 3 Zrotation Yrotation Xrotation
										End Site
										{
											OFFSET 0.000000 0.000000 0.000000
										}
									}
								}
							}
						}
					}
				}
			}
		}
	}
}
MOTION
Frames: 8
Frame Time: 0.033333
7.304371 36.048225 -13.154713 -179.858115 -20.713063 179.796315 -0.237888 -2.580468 15.122035 -3.716356 -7.645804 -14.481917 8.399076 6.006259 15.376327 -0.146552 -1.860877 4.170289 0.000000 0.000000 0.000000 4.479586 -1.455509 14.741988 -2.211643 15.424673 -15.596078 -6.625270 7.569816 17.964815 12.702321 2.275428 2.303170 0.000000 0.000000 0.000000 2.596775 1.103828 -0.475500 -1.677350 -5.685954 -18.987984 1.007435 -2.190944 6.638756 -0.028006 0.000937 0.025829 0.327748 0.443484 9.913562 -1.809688 1.887602 18.708465 0.000000 0.000000 0.000000 2.534448 1.192001 6.871326 -18.966529 -14.564952 3.971816 -33.538589 16.058156 60.305769 -3.062345 -55.915347 10.480169 0.000000 0.000000 0.000000 -2.018208 2.282607 6.227234 30.557269 14.124503 14.403575 36.644641 -7.870819 15.693715 -3.822207 31.802180 -4.215759 0.000000 0.000000 0.000000 
7.215028 36.046764 -13.243462 -179.793146 -20.517980 179.675421 -0.051330 -2.693329 15.327861 -4.173046 -7.280043 -14.083486 8.332365 6.592844 15.685820 0.138324 -1.608505 3.998304 0.000000 0.000000 0.000000 4.524736 -1.435483 14.552311 -2.429673 15.845660 -15.673744 -6.891250 8.402464 17.900275 12.559993 2.277800 1.886085 0.000000 0.000000 0.000000 2.825014 0.945420 -0.310386 -1.431500 -5.561709 -18.814775 1.084669 -2.190476 6.704488 -0.006726 0.038756 -0.004182 0.354991 0.454542 9.854504 -1.883106 1.907360 18.633118 0.000000 0.000000 0.000000 2.459002 1.151096 7.009718 -19.374245 -14.038050 3.661833 -33.519345 16.784328 54.746630 -1.804678 -52.092050 9.394483 0.000000 0.000000 0.000000 -2.018959 2.226511 6.289972 30.575369 13.896835 14.192430 37.009554 -8.585158 15.148625 -3.903860 31.121238 -4.098188 0.000000 0.000000 0.000000 
7.126572 36.052948 -13.321652 -179.815863 -20.175675 179.759692 -0.033035 -2.747674 15.281937 -4.396946 -7.203357 -13.883030 8.065714 6.452423 15.569322 0.484575 -1.353741 4.411773 0.000000 0.000000 0.000000 4.598618 -1.446742 14.463962 -2.583983 15.625014 -15.511561 -6.876246 8.746649 18.113371 12.625892 2.449398 1.515131 0.000000 0.000000 0.000000 2.898496 1.077539 -0.154772 -0.899677 -5.031117 -18.764557 1.091143 -2.175940 6.820148 0.007888 -0.011214 0.018952 0.320792 0.364839 9.765578 -1.858356 1.882653 18.349018 0.000000 0.000000 0.000000 2.333806 1.113398 6.978989 -19.723966 -13.066963 3.106361 -35.410037 19.204749 42.890453 -0.024463 -45.928289 7.898706 0.000000 0.000000 0.000000 -2.145591 2.087993 6.322527 30.212085 12.981714 13.612488 37.653767 -10.073695 14.324204 -3.962750 30.781894 -3.876076 0.000000 0.000000 0.000000 
7.042504 36.067276 -13.417799 -179.883591 -19.686769 179.873209 -0.037944 -2.723858 15.311182 -4.597086 -7.179408 -13.749546 7.802000 6.160609 15.354019 0.999970 -1.026625 5.052167 0.000000 0.000000 0.000000 4.649624 -1.434787 14.424113 -2.850736 15.495522 -15.422922 -6.746919 9.140348 18.156157 12.637095 2.557025 1.309300 0.000000 0.000000 0.000000 2.886340 1.150903 0.019966 -0.212256 -4.213448 -18.761526 0.975240 -2.407373 6.948361 -0.023230 0.065734 -0.012749 0.301616 0.148362 9.768915 -1.725857 1.873540 17.857342 0.000000 0.000000 0.000000 2.198426 1.047453 7.100372 -20.025153 -12.039009 2.645176 -39.333656 22.325342 29.411150 1.367501 -39.666450 7.106484 0.000000 0.000000 0.000000 -2.292523 2.047951 6.346999 29.652652 11.595153 12.956295 38.632274 -11.954138 13.245163 -4.266765 30.712734 -3.763079 0.000000 0.000000 0.000000 
6.971253 36.092228 -13.517341 -179.855342 -19.193581 179.953082 -0.027809 -2.639826 15.437221 -4.720015 -7.139562 -13.736776 7.624270 6.147735 15.142099 1.245464 -0.886611 5.575760 0.000000 0.000000 0.000000 4.846634 -1.364960 14.469127 -3.128534 15.319807 -15.341896 -6.656319 9.543087 18.023385 12.593791 2.640300 1.207839 0.000000 0.000000 0.000000 2.861196 1.260325 0.111365 0.538862 -3.376983 -18.699461 0.859591 -2.643737 7.095161 0.016764 0.122991 0.034565 0.164771 0.085329 9.836349 -1.472674 1.868430 17.189908 0.000000 0.000000 0.000000 1.937427 0.914918 7.325567 -20.121083 -11.141744 2.473654 -43.849606 25.537481 19.562536 2.249436 -34.822968 7.138963 0.000000 0.000000 0.000000 -2.595229 1.959445 6.398561 29.026286 9.694559 12.025989 39.914710 -13.890943 11.692921 -4.578873 30.542017 -3.642515 0.000000 0.000000 0.000000 
6.927264 36.125805 -13.636553 -179.833007 -18.901806 -179.919136 -0.064585 -2.589406 15.585312 -4.659664 -7.160131 -13.807072 7.540792 6.156194 15.038854 1.377284 -0.778020 5.897562 0.000000 0.000000 0.000000 5.056454 -1.205470 14.616287 -3.373431 14.921528 -15.303297 -6.520065 9.897479 17.774756 12.401528 2.608388 1.126003 0.000000 0.000000 0.000000 2.745880 1.313242 0.099035 1.196123 -2.852685 -18.589635 0.747426 -2.645404 7.405266 -0.037778 0.031180 0.035909 0.083722 -0.051563 10.036253 -1.146893 1.862436 16.514019 0.000000 0.000000 0.000000 1.892055 0.816215 7.590261 -19.502089 -10.507051 2.521089 -47.062165 28.306845 14.948559 2.758028 -32.563364 7.566385 0.000000 0.000000 0.000000 -2.766510 1.891728 6.645921 28.393142 7.759142 10.913415 41.357567 -15.532038 9.801111 -4.859793 29.971782 -3.521304 0.000000 0.000000 0.000000 
6.880564 36.158318 -13.799739 -179.898126 -18.739556 -179.618566 -0.245350 -2.552102 15.677241 -4.496527 -7.241361 -13.925780 7.411961 5.963376 14.947205 1.572022 -0.592960 6.269112 0.000000 0.000000 0.000000 5.106145 -1.032614 14.772907 -3.572730 14.528828 -15.351286 -6.320520 9.812774 17.461317 12.276134 2.637441 1.365489 0.000000 0.000000 0.000000 2.518901 1.364590 0.001895 1.573301 -2.353382 -18.392731 0.613626 -2.627283 7.754671 0.009153 0.065723 0.056980 -0.047956 -0.121153 10.368275 -0.690823 1.894306 15.756510 0.000000 0.000000 0.000000 1.762817 0.758774 7.895134 -18.269561 -10.100365 2.599767 -48.516422 30.090071 13.481357 3.021184 -32.005167 8.280447 0.000000 0.000000 0.000000 -2.968913 1.875941 7.063613 27.871728 5.777017 9.785090 42.798208 -16.605073 7.779060 -4.924825 28.677061 -3.271926 0.000000 0.000000 0.000000 
6.838740 36.172634 -13.946404 -179.911978 -18.735106 -179.469477 -0.276058 -2.549734 15.796189 -4.389242 -7.310231 -13.970306 7.350863 5.986688 14.869291 1.585841 -0.493063 6.532875 0.000000 0.000000 0.000000 5.138207 -1.029354 14.959595 -3.634759 14.190337 -15.402461 -6.154805 9.708229 17.183950 12.165746 2.734218 1.735527 0.000000 0.000000 0.000000 2.398037 1.368581 0.128535 1.670415 -1.889396 -18.182884 0.446887 -2.690061 8.069597 -0.014969 0.135298 0.110209 -0.151175 -0.122220 10.689038 -0.175168 1.871167 15.069064 0.000000 0.000000 0.000000 1.682302 0.640821 8.171844 -16.800059 -9.837274 2.606180 -48.741091 30.930054 12.683915 3.250026 -32.183920 8.688308 0.000000 0.000000 0.000000 -3.077257 1.848269 7.355782 27.447450 3.987512 8.776114 43.795405 -17.079767 6.080079 -4.842775 27.094314 -2.974203 0.000000 0.000000 0.000000 
